<svg width="110" height="110" viewBox="0 0 110 110" fill="none" xmlns="http://www.w3.org/2000/svg">
<path d="M97.0549 17.7302L90.9133 15.1636V56.5511L102.051 29.6927C103.93 25.0177 101.776 19.6552 97.0549 17.7302ZM7.67994 34.6886L30.4133 89.4594C31.0827 91.1258 32.2246 92.5602 33.6984 93.5862C35.1723 94.6123 36.9139 95.1851 38.7091 95.2344C39.9008 95.2344 41.1383 95.0052 42.3299 94.5011L76.1091 80.5219C79.5466 79.1011 81.6549 75.7094 81.7466 72.3177C81.7924 71.1261 81.5633 69.7969 81.1508 68.6052L58.2341 13.8344C57.5884 12.1555 56.4512 10.7106 54.9711 9.68842C53.491 8.66626 51.737 8.11448 49.9383 8.10522C48.7466 8.10522 47.5549 8.38023 46.4091 8.79273L12.6758 22.7719C10.4334 23.6901 8.64753 25.4613 7.71071 27.6959C6.77388 29.9306 6.76281 32.4458 7.67994 34.6886ZM81.7008 17.2719C81.7008 14.8407 80.735 12.5092 79.0159 10.7901C77.2968 9.071 74.9653 8.10522 72.5341 8.10522H65.8883L81.7008 46.3302" fill="#FEC337"/>
<rect x="48" y="51" width="37" height="37" fill="white"/>
<g filter="url(#filter0_d_407_712)">
<path d="M67.3076 39.1023C51.7278 39.1023 39.1025 51.7311 39.1025 67.3074C39.1025 82.8837 51.7278 95.5125 67.3076 95.5125C82.8874 95.5125 95.5127 82.8837 95.5127 67.3074C95.5127 51.7311 82.8874 39.1023 67.3076 39.1023ZM80.3772 75.3917C81.0383 76.0528 81.4097 76.9494 81.4097 77.8843C81.4097 78.8192 81.0383 79.7158 80.3772 80.3769C79.7161 81.038 78.8195 81.4094 77.8845 81.4094C76.9496 81.4094 76.053 81.038 75.3919 80.3769L67.3076 72.2926L59.2233 80.3769C58.8967 80.7055 58.5083 80.9662 58.0805 81.1441C57.6527 81.322 57.194 81.4136 56.7307 81.4136C56.2674 81.4136 55.8087 81.322 55.3809 81.1441C54.9531 80.9662 54.5648 80.7055 54.2381 80.3769C53.5771 79.7158 53.2058 78.8192 53.2058 77.8843C53.2058 76.9494 53.5771 76.0528 54.2381 75.3917L62.3224 67.3074L54.2381 59.2231C53.577 58.562 53.2056 57.6654 53.2056 56.7305C53.2056 55.7956 53.577 54.8989 54.2381 54.2379C54.8992 53.5768 55.7958 53.2054 56.7307 53.2054C57.6656 53.2054 58.5623 53.5768 59.2233 54.2379L67.3076 62.3221L75.3919 54.2379C76.053 53.5768 76.9496 53.2054 77.8845 53.2054C78.8195 53.2054 79.7161 53.5768 80.3772 54.2379C81.0383 54.8989 81.4097 55.7956 81.4097 56.7305C81.4097 57.6654 81.0383 58.562 80.3772 59.2231L72.2929 67.3074L80.3772 75.3917Z" fill="#2263A3"/>
</g>
<defs>
<filter id="filter0_d_407_712" x="35.7179" y="39.1023" width="63.1794" height="63.1794" filterUnits="userSpaceOnUse" color-interpolation-filters="sRGB">
<feFlood flood-opacity="0" result="BackgroundImageFix"/>
<feColorMatrix in="SourceAlpha" type="matrix" values="0 0 0 0 0 0 0 0 0 0 0 0 0 0 0 0 0 0 127 0" result="hardAlpha"/>
<feOffset dy="3.38461"/>
<feGaussianBlur stdDeviation="1.69231"/>
<feComposite in2="hardAlpha" operator="out"/>
<feColorMatrix type="matrix" values="0 0 0 0 0 0 0 0 0 0 0 0 0 0 0 0 0 0 0.25 0"/>
<feBlend mode="normal" in2="BackgroundImageFix" result="effect1_dropShadow_407_712"/>
<feBlend mode="normal" in="SourceGraphic" in2="effect1_dropShadow_407_712" result="shape"/>
</filter>
</defs>
</svg>
