<svg width="99" height="99" viewBox="0 0 99 99" fill="none" xmlns="http://www.w3.org/2000/svg">
<g filter="url(#filter0_d_407_853)">
<rect x="13" y="25" width="73" height="35" fill="white"/>
<path d="M62.9854 47.0754V43.9302C62.9854 39.2267 60.5853 36.9119 57.3718 36.9119C54.1186 36.9119 51.7412 39.2267 51.7412 43.9302V47.0754C51.7412 51.7961 54.1186 54.1109 57.3718 54.1109C60.5853 54.1109 62.9854 51.7904 62.9854 47.0754ZM77.6933 45.7104C80.3266 45.7104 81.8736 44.1634 81.8736 41.4789C81.8736 38.7944 80.3266 37.2645 77.6933 37.2645H73.2911V45.7104H77.6933Z" fill="#C90003"/>
<path d="M31.8289 0C31.0762 0.000159927 30.3542 0.29877 29.8212 0.830375L4.83038 25.8212C4.29877 26.3542 4.00016 27.0762 4 27.8289V63.1711C4.00016 63.9238 4.29877 64.6458 4.83038 65.1787L29.8212 90.1696C30.3542 90.7012 31.0762 90.9998 31.8289 91H67.1711C67.9238 90.9998 68.6458 90.7012 69.1787 90.1696L94.1696 65.1787C94.7012 64.6458 94.9998 63.9238 95 63.1711V27.8289C94.9998 27.0762 94.7012 26.3542 94.1696 25.8212L69.1787 0.830375C68.6458 0.29877 67.9238 0.000159927 67.1711 0L31.8289 0ZM21.9725 57.33C16.6774 57.33 13.7427 54.5261 13.4754 50.8918H17.1893C17.559 52.8596 19.4416 54.2076 22.2569 54.2076C25.2371 54.2076 26.9775 52.8084 26.9775 50.6813C26.9775 48.958 25.8229 48.0252 23.3546 47.4281L19.6236 46.4953C16.1542 45.6593 14.0612 43.5947 14.0612 40.3642C14.0612 36.3488 17.4566 33.6302 22.2739 33.6302C27.1254 33.6302 30.1568 36.3317 30.4412 39.8125H26.7728C26.4088 37.9925 24.7708 36.7299 22.2398 36.7299C19.5553 36.7299 17.8604 38.129 17.8604 40.1424C17.8604 41.6268 18.9752 42.6278 21.0056 43.1112L24.7253 44.0269C28.5529 44.9597 30.754 46.7967 30.754 50.3401C30.754 54.5261 27.4894 57.33 21.9725 57.33ZM41.4636 37.3669V56.875H37.6814V37.3669H31.0327V34.125H48.1293V37.3555H41.4636V37.3669ZM66.8184 43.9644V47.0584C66.8184 53.4909 63.2012 57.3243 57.3715 57.3243C51.5361 57.3243 47.9075 53.4909 47.9075 47.0584V43.9644C47.9075 37.5034 51.5361 33.6871 57.3715 33.6871C63.2069 33.6871 66.8127 37.5204 66.8127 43.9644H66.8184ZM69.52 34.125H78.2503C82.9141 34.125 85.7351 37.2531 85.7351 41.4732C85.7351 45.7218 82.8856 48.8044 78.2219 48.8044H73.3022V56.875H69.52V34.125Z" fill="#C90003"/>
</g>
<defs>
<filter id="filter0_d_407_853" x="0" y="0" width="99" height="99" filterUnits="userSpaceOnUse" color-interpolation-filters="sRGB">
<feFlood flood-opacity="0" result="BackgroundImageFix"/>
<feColorMatrix in="SourceAlpha" type="matrix" values="0 0 0 0 0 0 0 0 0 0 0 0 0 0 0 0 0 0 127 0" result="hardAlpha"/>
<feOffset dy="4"/>
<feGaussianBlur stdDeviation="2"/>
<feComposite in2="hardAlpha" operator="out"/>
<feColorMatrix type="matrix" values="0 0 0 0 0 0 0 0 0 0 0 0 0 0 0 0 0 0 0.25 0"/>
<feBlend mode="normal" in2="BackgroundImageFix" result="effect1_dropShadow_407_853"/>
<feBlend mode="normal" in="SourceGraphic" in2="effect1_dropShadow_407_853" result="shape"/>
</filter>
</defs>
</svg>
